#N canvas -7 0 1459 980 12;
#X text 831 192 Generate the .txt file with the candidate ID, f 17
;
#N canvas 437 1176 931 567 pitch-EnvDetector 0;
#X obj 19 238 unpack 0 0 0 0;
#X floatatom 19 346 5 0 0 0 - - -;
#X floatatom 50 323 5 0 0 0 - - -;
#X floatatom 82 300 5 0 0 0 - - -;
#X floatatom 114 271 5 0 0 0 - - -;
#X floatatom 37 397 5 0 0 0 - - -;
#X obj 19 11 inlet~;
#X obj 86 11 inlet;
#X obj 86 35 s octaver;
#X obj 37 372 r octaver;
#X obj 19 423 / 1;
#X obj 178 11 inlet;
#X msg 178 35 maxfreq \$1;
#X obj 274 11 inlet;
#X obj 406 11 inlet;
#X obj 712 595 vsl 15 128 0.01 10 1 0 empty empty empty 0 -9 0 10 -262144
-1 -1 5508 1;
#X floatatom 712 743 5 0 0 0 - - -;
#X obj 671 595 vsl 15 128 0.01 10 1 0 empty empty empty 0 -9 0 10 -262144
-1 -1 7192 1;
#X floatatom 671 743 5 0 0 0 - - -;
#X obj 630 595 vsl 15 128 0.01 10 1 0 empty empty empty 0 -9 0 10 -262144
-1 -1 7811 1;
#X floatatom 630 743 5 0 0 0 - - -;
#X obj 589 595 vsl 15 128 0.01 10 1 0 empty empty empty 0 -9 0 10 -262144
-1 -1 8467 0;
#X floatatom 589 743 5 0 0 0 - - -;
#X obj 52 422 *;
#X obj 19 178 route 0 1 2 3, f 87;
#X msg 274 105 hop \$1;
#X msg 406 105 npts \$1;
#X obj 19 152 sigmund~ -npeak 4 peaks -maxfreq 1000 -growth 7 -hop
512 -npts 2048 -stabletime 50, f 83;
#X obj 20 603 *~, f 5;
#X obj 96 639 +~;
#X obj 244 822 outlet~;
#X obj 171 600 *~, f 5;
#X obj 322 600 *~, f 5;
#X obj 474 598 *~, f 5;
#X obj 405 639 +~;
#X obj 243 680 +~;
#X obj 244 735 +~;
#X obj 244 774 lop~ 250;
#X floatatom 297 743 8 20 15000 0 - - -;
#X obj 720 312 hsl 128 15 0 1 0 0 empty empty empty -2 -8 0 10 -262144
-1 -1 0 1;
#X obj 717 376 expr 1 - $f1;
#X obj 19 457 osc~;
#X obj 63 457 phasor~;
#X obj 19 539 +~;
#X obj 19 515 *~;
#X obj 63 515 *~;
#X obj 717 400 s osc;
#X obj 731 353 s phas;
#X obj 37 487 r osc;
#X obj 81 487 r phas;
#X obj 170 238 unpack 0 0 0 0;
#X floatatom 170 346 5 0 0 0 - - -;
#X floatatom 201 323 5 0 0 0 - - -;
#X floatatom 233 300 5 0 0 0 - - -;
#X floatatom 265 271 5 0 0 0 - - -;
#X floatatom 188 397 5 0 0 0 - - -;
#X obj 188 372 r octaver;
#X obj 170 423 / 1;
#X obj 203 422 *;
#X obj 170 457 osc~;
#X obj 214 457 phasor~;
#X obj 170 539 +~;
#X obj 170 515 *~;
#X obj 214 515 *~;
#X obj 188 487 r osc;
#X obj 232 487 r phas;
#X obj 322 238 unpack 0 0 0 0;
#X floatatom 322 346 5 0 0 0 - - -;
#X floatatom 353 323 5 0 0 0 - - -;
#X floatatom 385 300 5 0 0 0 - - -;
#X floatatom 417 271 5 0 0 0 - - -;
#X floatatom 340 397 5 0 0 0 - - -;
#X obj 340 372 r octaver;
#X obj 322 423 / 1;
#X obj 355 422 *;
#X obj 322 457 osc~;
#X obj 366 457 phasor~;
#X obj 322 540 +~;
#X obj 322 515 *~;
#X obj 366 515 *~;
#X obj 340 487 r osc;
#X obj 384 487 r phas;
#X obj 473 236 unpack 0 0 0 0;
#X floatatom 473 344 5 0 0 0 - - -;
#X floatatom 504 321 5 0 0 0 - - -;
#X floatatom 536 298 5 0 0 0 - - -;
#X floatatom 568 269 5 0 0 0 - - -;
#X floatatom 491 395 5 0 0 0 - - -;
#X obj 491 370 r octaver;
#X obj 473 421 / 1;
#X obj 506 420 *;
#X obj 473 455 osc~;
#X obj 517 455 phasor~;
#X obj 473 537 +~;
#X obj 473 513 *~;
#X obj 517 513 *~;
#X obj 491 485 r osc;
#X obj 535 485 r phas;
#X obj 588 11 inlet;
#X obj 589 523 unpack f f f f, f 18;
#X obj 717 11 inlet;
#X obj 777 11 inlet;
#X obj 777 35 s freqLP;
#X obj 297 713 r freqLP;
#X msg 745 273 0;
#X obj 745 240 loadbang;
#X connect 0 0 1 0;
#X connect 0 1 2 0;
#X connect 0 2 3 0;
#X connect 0 3 4 0;
#X connect 1 0 10 0;
#X connect 2 0 23 0;
#X connect 5 0 10 1;
#X connect 6 0 27 0;
#X connect 7 0 8 0;
#X connect 9 0 5 0;
#X connect 10 0 41 0;
#X connect 10 0 42 0;
#X connect 11 0 12 0;
#X connect 12 0 27 0;
#X connect 13 0 25 0;
#X connect 14 0 26 0;
#X connect 15 0 16 0;
#X connect 16 0 90 1;
#X connect 17 0 18 0;
#X connect 18 0 74 1;
#X connect 19 0 20 0;
#X connect 20 0 58 1;
#X connect 21 0 22 0;
#X connect 22 0 23 1;
#X connect 23 0 28 1;
#X connect 24 0 0 0;
#X connect 24 1 50 0;
#X connect 24 2 66 0;
#X connect 24 3 82 0;
#X connect 25 0 27 0;
#X connect 26 0 27 0;
#X connect 27 0 24 0;
#X connect 28 0 29 0;
#X connect 29 0 35 0;
#X connect 31 0 29 0;
#X connect 32 0 34 0;
#X connect 33 0 34 1;
#X connect 34 0 35 1;
#X connect 35 0 36 0;
#X connect 36 0 37 0;
#X connect 37 0 30 0;
#X connect 38 0 37 1;
#X connect 39 0 40 0;
#X connect 39 0 47 0;
#X connect 40 0 46 0;
#X connect 41 0 44 0;
#X connect 42 0 45 0;
#X connect 43 0 28 0;
#X connect 44 0 43 0;
#X connect 45 0 43 1;
#X connect 48 0 44 1;
#X connect 49 0 45 1;
#X connect 50 0 51 0;
#X connect 50 1 52 0;
#X connect 50 2 53 0;
#X connect 50 3 54 0;
#X connect 51 0 57 0;
#X connect 52 0 58 0;
#X connect 55 0 57 1;
#X connect 56 0 55 0;
#X connect 57 0 59 0;
#X connect 57 0 60 0;
#X connect 58 0 31 1;
#X connect 59 0 62 0;
#X connect 60 0 63 0;
#X connect 61 0 31 0;
#X connect 62 0 61 0;
#X connect 63 0 61 1;
#X connect 64 0 62 1;
#X connect 65 0 63 1;
#X connect 66 0 67 0;
#X connect 66 1 68 0;
#X connect 66 2 69 0;
#X connect 66 3 70 0;
#X connect 67 0 73 0;
#X connect 68 0 74 0;
#X connect 71 0 73 1;
#X connect 72 0 71 0;
#X connect 73 0 75 0;
#X connect 73 0 76 0;
#X connect 74 0 32 1;
#X connect 75 0 78 0;
#X connect 76 0 79 0;
#X connect 77 0 32 0;
#X connect 78 0 77 0;
#X connect 79 0 77 1;
#X connect 80 0 78 1;
#X connect 81 0 79 1;
#X connect 82 0 83 0;
#X connect 82 1 84 0;
#X connect 82 2 85 0;
#X connect 82 3 86 0;
#X connect 83 0 89 0;
#X connect 84 0 90 0;
#X connect 87 0 89 1;
#X connect 88 0 87 0;
#X connect 89 0 91 0;
#X connect 89 0 92 0;
#X connect 90 0 33 1;
#X connect 91 0 94 0;
#X connect 92 0 95 0;
#X connect 93 0 33 0;
#X connect 94 0 93 0;
#X connect 95 0 93 1;
#X connect 96 0 94 1;
#X connect 97 0 95 1;
#X connect 98 0 99 0;
#X connect 99 0 21 0;
#X connect 99 1 19 0;
#X connect 99 2 17 0;
#X connect 99 3 15 0;
#X connect 100 0 39 0;
#X connect 101 0 102 0;
#X connect 103 0 38 0;
#X connect 104 0 39 0;
#X connect 105 0 104 0;
#X restore 318 981 pd pitch-EnvDetector;
#X f 123;
#X text 446 940 Octaver;
#X text 569 940 Freq analysis;
#X text 691 940 Hop size;
#X msg 440 919 1;
#X msg 563 919 1500;
#X msg 685 919 256;
#X msg 808 919 4096;
#X msg 1053 919 0;
#X msg 1176 919 1000;
#X msg 930 919 1 0.7 0.5 0.2;
#X obj 793 845 loadbang;
#X text 1059 940 Sine / saw;
#X text 1182 940 Freq LPF;
#X obj 342 924 tgl 15 0 empty empty empty 17 7 0 10 -262144 -1 -1 0
1;
#X obj 278 1041 *~;
#X obj 278 954 * -1;
#X obj 278 981 + 1;
#X obj 259 1083 +~;
#X obj 342 869 r pitchTracker;
#X obj 319 840 *~;
#X obj 337 729 tgl 15 0 empty empty empty 17 7 0 10 -262144 -1 -1 1
1;
#X obj 337 700 r haptics;
#X obj 657 120 vsl 30 128 0 100 0 0 empty empty empty 0 -9 0 10 -262144
-1 -1 6350 0;
#X floatatom 657 261 5 0 0 0 - - -;
#X obj 866 270 bng 50 250 50 0 empty empty empty 17 7 0 10 -204786
-4034 -66577;
#X text 873 245 NEXT;
#X obj 1390 432 bng 15 250 50 0 empty empty empty 17 7 0 10 -262144
-1 -1;
#X obj 1478 490 bng 15 250 50 0 empty empty empty 17 7 0 10 -262144
-1 -1;
#X text 1496 489 Is done;
#X obj 1390 579 bng 15 250 50 0 empty empty empty 17 7 0 10 -262144
-1 -1;
#X obj 1417 579 bng 15 250 50 0 empty empty empty 17 7 0 10 -262144
-1 -1;
#X obj 1444 579 bng 15 250 50 0 empty empty empty 17 7 0 10 -262144
-1 -1;
#X floatatom 1390 500 5 0 0 0 - - -;
#X obj 1287 760 bng 50 250 50 0 empty empty empty 17 7 0 10 -204800
-4032 -66577;
#X obj 128 1157 dac~;
#X obj 1390 726 s song;
#X obj 1417 678 s song;
#X obj 1444 630 s song;
#X obj 1390 452 RandomNoRep 3;
#X obj 1397 925 readsf~ 2;
#X obj 1397 872 r song;
#X msg 1287 839 start;
#X obj 1287 815 t b b, f 8;
#X obj 1340 521 i;
#X text 1427 897 AudioPlayer;
#X text 816 940 Num of points analysis, f 13;
#X text 937 942 Volume of each harmonic, f 13;
#X obj 657 -28 receive fromGUI;
#X obj 657 -4 list trim;
#X obj 942 50 s play;
#X obj 1287 712 r play;
#X obj 127 914 *~;
#X obj 127 613 receive fromGUI;
#X obj 127 637 list trim;
#X obj 319 764 *;
#X obj 127 661 route /s_master_vol;
#X obj 1020 208 bng 15 250 50 0 empty empty empty 17 7 0 10 -262144
-1 -1;
#X obj 1255 308 send toGUI;
#X obj 1268 209 spigot;
#X obj 752 50 sel 1;
#X obj 1268 184 + 1;
#X obj 127 685 unpack f f;
#X obj 1287 736 sel 1;
#X floatatom 280 784 5 0 0 0 - - -;
#X floatatom 127 708 5 0 0 0 - - -;
#X obj 194 708 t b f;
#X obj 1739 909 bng 50 250 50 0 empty empty empty 17 7 0 10 -203904
-4032 -66577;
#X obj 1739 884 sel 1;
#X obj 1037 50 s setup_play;
#X obj 1739 860 r setup_play;
#X obj 1652 149 loadbang;
#X text 1551 213 Instruction labels;
#X msg 1352 220 list /l_listening LISTENING;
#X msg 1352 196 list /l_numpage \$1;
#X msg 1782 267 list /l_numpage;
#X obj 1694 380 send toGUI;
#X obj 657 288 i;
#X obj 657 337 send toGUI;
#X msg 657 313 list /l_rateval \$1;
#X msg 1782 295 list /l_listening CONFIRM to start;
#X obj 1691 580 bng 50 250 50 0 empty empty empty 17 7 0 10 -261234
-4032 -66577;
#X msg 1691 659 start;
#X obj 1691 635 t b b;
#X obj 1691 556 sel 1;
#X text 1754 590 Reference play;
#X obj 1132 50 s ref_play;
#X obj 1690 739 readsf~ 2;
#X text 1720 711 AudioPlayer;
#X obj 145 787 catch~ leftPlayer;
#X obj 337 787 catch~ rightPlayer;
#X obj 1428 987 throw~ rightPlayer;
#X obj 1398 1011 throw~ leftPlayer;
#X obj 1691 823 throw~ leftPlayer;
#X obj 1691 532 r ref_play;
#X obj 1702 688 r song;
#X obj 737 196 r isfinished;
#X obj 536 241 loadbang;
#X obj 1736 93 r isfinished;
#X msg 1782 323 list /l_listening Test finished!;
#X obj 260 1012 *~ 1;
#X text 1866 136 Opening page;
#X text 1344 133 Enable buttons+slider and visualize listening counter
, f 21;
#X text 448 715 Enable both channels for the initial volune setting
, f 14;
#X text 1502 524 Select different soungs;
#X text 1634 914 Test play for initial volume setting, f 14;
#X text 1214 783 Play randomized song, f 10;
#X msg 1782 183 list /b_play enable 0;
#X msg 1782 211 list /b_playref enable 0;
#X msg 1782 239 list /s_rate enable 0;
#X msg 1352 244 list /b_play enable 1;
#X msg 1352 268 list /b_playref enable 1;
#X msg 1352 292 list /s_rate enable 1;
#X obj 372 557 loadbang;
#X msg 372 581 list /s_master_vol 0.5 0.5;
#X obj 372 605 send toGUI;
#X text 442 557 Initialize volume;
#X msg 1444 606 open Orchestra.wav;
#X msg 1417 654 open Band.wav;
#X msg 1390 702 open Duo.wav;
#X text 1709 780 The reference is only audio feed;
#X obj 311 672 loadbang;
#X msg 536 269 50;
#X obj 657 93 * 100;
#X msg 536 314 list /s_rate \$1;
#X obj 536 293 / 100;
#N canvas 7 360 1042 617 savetotxt 0;
#X obj 45 571 textfile;
#X text 69 150 Generate the .txt file with the candidate ID, f 23
;
#X obj 333 151 bng 50 250 50 0 empty empty empty 17 7 0 10 -262130
-257985 -66577;
#X text 388 93 Confirm;
#X obj 372 264 i;
#X msg 45 281 write \$1.txt;
#X floatatom 45 258 10 0 0 0 - - -;
#X obj 45 190 del 100;
#X obj 45 214 bng 15 250 50 0 empty empty empty 17 7 0 10 -262144 -1
-1;
#X obj 257 345 symbol;
#X obj 314 345 symbol;
#X msg 257 321 \$1;
#X msg 200 344 add;
#X obj 200 383 pack s s s f, f 25;
#X obj 200 438 spigot;
#X text 302 443 Enable print after first confirmation, f 20;
#X obj 200 488 print save;
#X obj 314 321 r status;
#X msg 200 463 \$1 \$2 \$3 \$4;
#X obj 499 275 + 1;
#X obj 464 275 i;
#X obj 464 224 bng 15 250 50 0 empty empty empty 17 7 0 10 -262144
-1 -1;
#X floatatom 464 302 5 0 0 0 - - -;
#X msg 482 247 0;
#X obj 498 208 loadbang;
#X obj 502 176 bng 15 250 50 0 empty empty empty 17 7 0 10 -262144
-1 -1;
#X text 524 173 Reset counter;
#X obj 482 328 > 0;
#X obj 333 217 t b b b;
#X obj 445 362 &&;
#X floatatom 445 386 5 0 0 0 - - -;
#X obj 45 353 spigot;
#X obj 333 94 inlet;
#X obj 45 94 inlet;
#X obj 257 94 inlet;
#X text 28 17 Write in a .txt file the answers for each listening test.
;
#X text 547 263 Counter to control number of executions, f 20;
#X obj 445 328 < 13;
#X obj 390 242 r rate;
#X obj 841 135 r sex;
#X obj 841 170 sel 0 1 2 3;
#X msg 841 194 Male;
#X msg 859 222 Female;
#X msg 878 250 Intersex;
#X msg 896 278 Rather_Not_Say;
#X obj 891 321 r age;
#X obj 808 361 pack s s f;
#X obj 808 94 inlet;
#X text 860 93 Demographics confirm;
#X obj 841 321 symbol;
#X msg 808 321 add;
#X floatatom 891 345 5 0 0 0 - - -;
#X msg 808 385 \$1 \$2 \$3;
#X obj 808 409 print save;
#X obj 45 234 RandomFromNoise 1e+006;
#X connect 2 0 28 0;
#X connect 4 0 13 3;
#X connect 5 0 31 0;
#X connect 6 0 5 0;
#X connect 7 0 8 0;
#X connect 8 0 54 0;
#X connect 9 0 13 1;
#X connect 10 0 13 2;
#X connect 11 0 9 0;
#X connect 12 0 13 0;
#X connect 13 0 14 0;
#X connect 14 0 18 0;
#X connect 17 0 10 0;
#X connect 18 0 0 0;
#X connect 18 0 16 0;
#X connect 19 0 20 1;
#X connect 20 0 19 0;
#X connect 20 0 22 0;
#X connect 21 0 20 0;
#X connect 22 0 27 0;
#X connect 22 0 37 0;
#X connect 23 0 20 1;
#X connect 24 0 23 0;
#X connect 25 0 23 0;
#X connect 27 0 29 1;
#X connect 28 0 12 0;
#X connect 28 1 4 0;
#X connect 28 2 21 0;
#X connect 29 0 14 1;
#X connect 29 0 30 0;
#X connect 29 0 31 1;
#X connect 31 0 0 0;
#X connect 32 0 2 0;
#X connect 33 0 7 0;
#X connect 34 0 11 0;
#X connect 37 0 29 0;
#X connect 38 0 4 1;
#X connect 39 0 40 0;
#X connect 40 0 41 0;
#X connect 40 1 42 0;
#X connect 40 2 43 0;
#X connect 40 3 44 0;
#X connect 41 0 49 0;
#X connect 42 0 49 0;
#X connect 43 0 49 0;
#X connect 44 0 49 0;
#X connect 45 0 46 2;
#X connect 45 0 51 0;
#X connect 46 0 52 0;
#X connect 47 0 50 0;
#X connect 49 0 46 1;
#X connect 50 0 46 0;
#X connect 52 0 53 0;
#X connect 52 0 0 0;
#X connect 54 0 6 0;
#X restore 737 266 pd savetotxt;
#X obj 777 221 r song;
#X obj 866 349 s next;
#X obj 1123 604 r next;
#N canvas 143 151 827 460 mappings 0;
#X msg 182 324 \; pitchTracker 0 \; haptics 1;
#X msg 22 325 \; pitchTracker 0 \; haptics 0;
#X obj 22 55 bng 15 250 50 0 empty empty empty 17 7 0 10 -262144 -1
-1;
#X obj 131 116 bng 15 250 50 0 empty empty empty 17 7 0 10 -262144
-1 -1;
#X text 149 115 Is done;
#X obj 22 202 bng 15 250 50 0 empty empty empty 17 7 0 10 -262144 -1
-1;
#X obj 49 202 bng 15 250 50 0 empty empty empty 17 7 0 10 -262144 -1
-1;
#X obj 76 202 bng 15 250 50 0 empty empty empty 17 7 0 10 -262144 -1
-1;
#X obj 22 99 + 1;
#X floatatom 22 123 5 0 0 0 - - -;
#X text 66 378 No haptics;
#X text 198 377 Normal haptics;
#X msg 30 274 noHaptics;
#X msg 187 274 normalHaptics;
#X msg 316 217 pitchHaptics;
#X text 329 339 Pitch haptics;
#X obj 30 298 s status;
#X obj 187 298 s status;
#X obj 316 241 s status;
#X text 145 169 Select different haptic mappings;
#X obj 22 12 inlet;
#X msg 316 267 \; pitchTracker 1 \; haptics 1 \; octaver 1 \;;
#X obj 438 162 s status;
#X obj 22 176 select 1 2 3 4;
#X obj 22 75 RandomNoRep 4;
#X obj 103 202 bng 15 250 50 0 empty empty empty 17 7 0 10 -262144
-1 -1;
#X text 456 252 Pitch haptics octave down, f 14;
#X msg 438 188 \; pitchTracker 1 \; haptics 1 \; octaver 2 \;;
#X msg 438 138 pitchHapticsOctaved;
#X connect 2 0 24 0;
#X connect 5 0 1 0;
#X connect 5 0 12 0;
#X connect 6 0 0 0;
#X connect 6 0 13 0;
#X connect 7 0 14 0;
#X connect 7 0 21 0;
#X connect 8 0 9 0;
#X connect 9 0 23 0;
#X connect 12 0 16 0;
#X connect 13 0 17 0;
#X connect 14 0 18 0;
#X connect 20 0 2 0;
#X connect 23 0 5 0;
#X connect 23 1 6 0;
#X connect 23 2 7 0;
#X connect 23 3 25 0;
#X connect 24 0 8 0;
#X connect 24 1 3 0;
#X connect 25 0 28 0;
#X connect 25 0 27 0;
#X connect 28 0 22 0;
#X restore 1123 634 pd mappings;
#X obj 866 324 spigot;
#X obj 1055 259 + 1;
#X obj 1020 259 i;
#X floatatom 1020 286 5 0 0 0 - - -;
#X msg 1038 231 0;
#X obj 1034 141 loadbang;
#X obj 1066 202 bng 15 250 50 0 empty empty empty 17 7 0 10 -262144
-1 -1;
#X text 1088 199 Reset counter;
#X obj 901 573 + 1;
#X obj 866 522 bng 15 250 50 0 empty empty empty 17 7 0 10 -262144
-1 -1;
#X floatatom 866 600 5 0 0 0 - - -;
#X msg 899 528 0;
#X obj 899 474 bng 15 250 50 0 empty empty empty 17 7 0 10 -262144
-1 -1;
#X text 921 471 Reset counter;
#X obj 866 653 sel 0;
#X obj 1020 340 sel 0;
#X obj 1020 370 s isfinished;
#X obj 866 573 i 0;
#X text 929 276 Count the number of listenings, f 11;
#X obj 440 894 r octave;
#X obj 1020 310 < 12;
#X obj 866 629 < 4;
#X text 833 450 Change song every 4 mappings, f 12;
#X obj 1034 165 t b b;
#X obj 602 286 s rate;
#X obj 57 39 loadbang;
#X obj 57 64 bng 15 250 50 0 empty empty empty 17 7 0 10 -262144 -1
-1;
#X obj 57 194 send toGUI;
#X obj 28 275 receive fromGUI;
#X obj 28 301 list trim;
#X obj 28 325 route /m_sex /s_age;
#X obj 28 349 s sex;
#X obj 195 129 r sex;
#X obj 66 113 r age;
#X msg 66 135 list /l_age \$1;
#X floatatom 93 351 5 0 0 0 - - -;
#X obj 93 424 s age;
#X obj 93 374 + 18;
#X obj 195 153 sel 0 1 2 3;
#X msg 195 177 list /l_sex Male;
#X msg 213 205 list /l_sex Female;
#X msg 232 233 list /l_sex Intersex;
#X obj 195 303 send toGUI;
#X msg 57 84 list /m_sex Male Female Intersex Rather_Not_Say;
#X msg 250 261 list /l_sex Rather_Not_Say;
#X obj 657 20 route /s_rate /b_confirm /b_confirm_demo /b_play /b_setup_play
/b_playref, f 82;
#X obj 852 97 s confirm_demo;
#X obj 2198 99 r confirm_demo;
#X obj 2209 282 send toGUI;
#X msg 2297 161 list /m_sex enable 0;
#X msg 2297 189 list /s_age enable 0;
#X obj 252 331 loadbang;
#X msg 252 355 list /l_sex None;
#X obj 252 404 send toGUI;
#X obj 186 333 loadbang;
#X msg 186 357 0;
#X msg 186 381 list /s_age \$1;
#X msg 2297 217 list /b_confirm_demo enable 0;
#X msg 2083 161 list /m_sex enable 1;
#X msg 2083 189 list /s_age enable 1;
#X msg 2083 217 list /b_confirm_demo enable 1;
#X obj 2050 118 loadbang;
#X floatatom 93 398 5 0 0 0 - - -;
#X obj 847 50 sel 1;
#X obj 1590 1060 noise~;
#X obj 1670 1026 line;
#X floatatom 1670 1050 5 0 0 0 - - -;
#X obj 1670 1073 log 10;
#X obj 1589 1118 *~;
#X obj 1620 1153 throw~ rightPlayer;
#X obj 1590 1177 throw~ leftPlayer;
#X obj 1798 970 delay 5000;
#X floatatom 1670 1105 5 0 0 0 - - -;
#X msg 1670 996 1 \, 10 1000 0.01;
#X msg 1798 997 10 \, 1 1000 0.01;
#X obj 2205 544 send toGUI;
#X obj 2046 380 loadbang;
#X msg 2079 423 list /b_setup_play enable 0;
#X msg 2079 451 list /s_master_vol enable 0;
#X obj 2266 379 r confirm_demo;
#X msg 2299 422 list /b_setup_play enable 1;
#X msg 2299 450 list /s_master_vol enable 1;
#N canvas 0 50 450 300 logSlider 0;
#X obj 16 200 \$1 20;
#X obj 16 223 line;
#X obj 16 255 outlet;
#X obj 16 14 inlet;
#X text 59 14 accepts a slider scaled from 0.1 - n;
#X floatatom 16 67 5 0 0 0 - - -;
#X obj 16 90 * 40;
#X obj 16 114 + 60;
#X obj 16 138 dbtorms;
#X floatatom 16 162 5 0 0 0 - - -;
#X connect 0 0 1 0;
#X connect 1 0 2 0;
#X connect 3 0 5 0;
#X connect 5 0 6 0;
#X connect 6 0 7 0;
#X connect 7 0 8 0;
#X connect 8 0 9 0;
#X connect 9 0 0 0;
#X restore 127 733 pd logSlider;
#X floatatom 127 757 5 0 0 0 - - -;
#N canvas 0 50 450 300 logSlider 0;
#X obj 16 200 \$1 20;
#X obj 16 223 line;
#X obj 16 255 outlet;
#X obj 16 14 inlet;
#X text 59 14 accepts a slider scaled from 0.1 - n;
#X floatatom 16 67 5 0 0 0 - - -;
#X obj 16 90 * 40;
#X obj 16 114 + 60;
#X obj 16 138 dbtorms;
#X floatatom 16 162 5 0 0 0 - - -;
#X connect 0 0 1 0;
#X connect 1 0 2 0;
#X connect 3 0 5 0;
#X connect 5 0 6 0;
#X connect 6 0 7 0;
#X connect 7 0 8 0;
#X connect 8 0 9 0;
#X connect 9 0 0 0;
#X restore 226 733 pd logSlider;
#X obj 771 115 t b b b;
#X obj 866 498 r next;
#X obj 1390 375 loadbang;
#X obj 1390 553 select 0 1 2;
#X text 1122 572 Mappings;
#X text 181 43 Demographics GUI;
#X connect 1 0 16 0;
#X connect 5 0 1 1;
#X connect 6 0 1 2;
#X connect 7 0 1 3;
#X connect 8 0 1 4;
#X connect 9 0 1 6;
#X connect 10 0 1 7;
#X connect 11 0 1 5;
#X connect 12 0 5 0;
#X connect 12 0 6 0;
#X connect 12 0 7 0;
#X connect 12 0 8 0;
#X connect 12 0 11 0;
#X connect 12 0 9 0;
#X connect 12 0 10 0;
#X connect 15 0 16 1;
#X connect 15 0 17 0;
#X connect 16 0 19 1;
#X connect 17 0 18 0;
#X connect 18 0 101 1;
#X connect 19 0 36 1;
#X connect 20 0 15 0;
#X connect 21 0 1 0;
#X connect 21 0 101 0;
#X connect 22 0 56 0;
#X connect 23 0 22 0;
#X connect 24 0 25 0;
#X connect 25 0 78 0;
#X connect 26 0 132 0;
#X connect 28 0 40 0;
#X connect 31 0 120 0;
#X connect 32 0 119 0;
#X connect 33 0 118 0;
#X connect 34 0 45 1;
#X connect 34 0 220 0;
#X connect 35 0 44 0;
#X connect 40 0 34 0;
#X connect 40 1 29 0;
#X connect 41 0 93 0;
#X connect 41 1 92 0;
#X connect 42 0 41 0;
#X connect 43 0 41 0;
#X connect 44 0 43 0;
#X connect 44 1 45 0;
#X connect 45 0 220 0;
#X connect 49 0 50 0;
#X connect 50 0 177 0;
#X connect 52 0 64 0;
#X connect 53 0 36 0;
#X connect 54 0 55 0;
#X connect 55 0 57 0;
#X connect 56 0 21 0;
#X connect 56 0 65 0;
#X connect 57 0 63 0;
#X connect 58 0 134 0;
#X connect 60 0 75 0;
#X connect 60 0 74 0;
#X connect 60 0 111 0;
#X connect 60 0 112 0;
#X connect 60 0 113 0;
#X connect 61 0 217 0;
#X connect 62 0 60 0;
#X connect 63 0 66 0;
#X connect 63 1 67 0;
#X connect 64 0 35 0;
#X connect 66 0 214 0;
#X connect 67 0 56 0;
#X connect 67 1 216 0;
#X connect 68 0 205 0;
#X connect 68 0 203 0;
#X connect 69 0 68 0;
#X connect 71 0 69 0;
#X connect 72 0 81 0;
#X connect 72 0 76 0;
#X connect 72 0 110 0;
#X connect 72 0 109 0;
#X connect 72 0 108 0;
#X connect 74 0 59 0;
#X connect 75 0 59 0;
#X connect 76 0 77 0;
#X connect 78 0 80 0;
#X connect 78 0 156 0;
#X connect 80 0 79 0;
#X connect 81 0 77 0;
#X connect 82 0 84 0;
#X connect 83 0 88 0;
#X connect 84 0 83 0;
#X connect 84 1 45 0;
#X connect 85 0 82 0;
#X connect 88 0 94 0;
#X connect 90 0 53 1;
#X connect 91 0 21 1;
#X connect 95 0 85 0;
#X connect 96 0 88 0;
#X connect 97 0 127 0;
#X connect 98 0 123 0;
#X connect 99 0 76 0;
#X connect 99 0 100 0;
#X connect 99 0 110 0;
#X connect 99 0 109 0;
#X connect 99 0 108 0;
#X connect 100 0 77 0;
#X connect 101 0 19 0;
#X connect 108 0 77 0;
#X connect 109 0 77 0;
#X connect 110 0 77 0;
#X connect 111 0 59 0;
#X connect 112 0 59 0;
#X connect 113 0 59 0;
#X connect 114 0 115 0;
#X connect 115 0 116 0;
#X connect 118 0 39 0;
#X connect 119 0 38 0;
#X connect 120 0 37 0;
#X connect 122 0 22 0;
#X connect 123 0 24 0;
#X connect 123 0 126 0;
#X connect 124 0 24 0;
#X connect 125 0 79 0;
#X connect 126 0 125 0;
#X connect 128 0 127 1;
#X connect 130 0 131 0;
#X connect 132 0 45 0;
#X connect 132 0 129 0;
#X connect 133 0 134 1;
#X connect 134 0 133 0;
#X connect 134 0 135 0;
#X connect 134 0 62 0;
#X connect 135 0 152 0;
#X connect 136 0 134 1;
#X connect 137 0 155 0;
#X connect 138 0 136 0;
#X connect 140 0 149 1;
#X connect 141 0 149 0;
#X connect 142 0 153 0;
#X connect 143 0 149 0;
#X connect 144 0 143 0;
#X connect 146 0 144 0;
#X connect 146 0 28 0;
#X connect 147 0 148 0;
#X connect 149 0 140 0;
#X connect 149 0 142 0;
#X connect 151 0 5 0;
#X connect 152 0 132 1;
#X connect 152 0 147 0;
#X connect 152 0 60 1;
#X connect 153 0 146 0;
#X connect 155 1 138 0;
#X connect 157 0 158 0;
#X connect 158 0 175 0;
#X connect 160 0 161 0;
#X connect 161 0 162 0;
#X connect 162 0 163 0;
#X connect 162 1 167 0;
#X connect 164 0 170 0;
#X connect 165 0 166 0;
#X connect 166 0 159 0;
#X connect 167 0 169 0;
#X connect 169 0 194 0;
#X connect 170 0 171 0;
#X connect 170 1 172 0;
#X connect 170 2 173 0;
#X connect 170 3 176 0;
#X connect 171 0 174 0;
#X connect 172 0 174 0;
#X connect 173 0 174 0;
#X connect 175 0 159 0;
#X connect 176 0 174 0;
#X connect 177 0 124 0;
#X connect 177 1 61 0;
#X connect 177 2 195 0;
#X connect 177 3 51 0;
#X connect 177 4 70 0;
#X connect 177 5 87 0;
#X connect 179 0 181 0;
#X connect 179 0 182 0;
#X connect 179 0 189 0;
#X connect 181 0 180 0;
#X connect 182 0 180 0;
#X connect 183 0 184 0;
#X connect 184 0 185 0;
#X connect 186 0 187 0;
#X connect 187 0 169 0;
#X connect 187 0 188 0;
#X connect 188 0 185 0;
#X connect 189 0 180 0;
#X connect 190 0 180 0;
#X connect 191 0 180 0;
#X connect 192 0 180 0;
#X connect 193 0 190 0;
#X connect 193 0 191 0;
#X connect 193 0 192 0;
#X connect 194 0 168 0;
#X connect 195 0 178 0;
#X connect 195 0 127 3;
#X connect 196 0 200 0;
#X connect 197 0 198 0;
#X connect 198 0 199 0;
#X connect 199 0 204 0;
#X connect 200 0 201 0;
#X connect 200 0 202 0;
#X connect 203 0 206 0;
#X connect 204 0 200 1;
#X connect 205 0 197 0;
#X connect 206 0 197 0;
#X connect 208 0 209 0;
#X connect 208 0 210 0;
#X connect 209 0 207 0;
#X connect 210 0 207 0;
#X connect 211 0 212 0;
#X connect 211 0 213 0;
#X connect 212 0 207 0;
#X connect 213 0 207 0;
#X connect 214 0 215 0;
#X connect 215 0 53 0;
#X connect 216 0 56 1;
#X connect 217 0 123 0;
#X connect 217 0 26 0;
#X connect 217 1 58 0;
#X connect 217 2 127 2;
#X connect 218 0 141 0;
#X connect 219 0 28 0;
#X connect 220 0 31 0;
#X connect 220 1 32 0;
#X connect 220 2 33 0;
