#N canvas -7 0 1900 980 12;
#X obj 105 668 bng 50 250 50 0 empty empty empty 17 7 0 10 -204786
-4032 -66577;
#X msg 105 747 start;
#X obj 105 644 sel 1;
#X obj 105 827 readsf~ 2;
#X text 135 799 AudioPlayer;
#X text 168 678 Play;
#X obj 106 129 bng 50 250 50 0 empty empty empty 17 7 0 10 -262130
-1 -1;
#X obj 106 242 + 1;
#X floatatom 129 302 5 0 0 0 - - -;
#X floatatom 208 190 5 0 0 0 - - -;
#X obj 400 642 textfile;
#X msg 350 585 bang;
#X msg 400 585 rewind;
#X obj 106 411 SimpleCounter, f 15;
#X msg 50 329 stop;
#X obj 208 498 t b f;
#X floatatom 240 537 5 0 0 0 - - -;
#X obj 240 564 print count;
#X obj 106 435 t b b b;
#X obj 129 325 print rnd;
#X obj 201 269 print isdone;
#X obj 106 266 t b f f;
#X obj 106 363 metro 10;
#X obj 106 564 print countfinish;
#X obj 247 445 != 0;
#X obj 208 472 spigot;
#X obj 106 186 t b b;
#X obj 482 585 loadbang;
#X obj 375 698 list;
#X msg 375 722 open \$1;
#X text 465 633 Read file from the txt list;
#X text 253 161 Overwrite range of selection;
#X text 167 117 Select each item of the list once in random order.
;
#X text 194 377 Jump to the nth moving skipping one item per time;
#X obj 573 1094 textfile;
#X text 743 997 Generate the .txt file with the candidate ID, f 23
;
#X msg 573 1065 write \$1.txt;
#X floatatom 573 1040 10 0 0 0 - - -;
#X obj 573 993 bng 15 250 50 0 empty empty empty 17 7 0 10 -262144
-1 -1;
#X obj 573 1016 RandomFromNoise 1e+006;
#X msg 1180 600 asc;
#X msg 1223 600 desc;
#X msg 1276 600 ascDesc;
#X msg 1346 600 descAsc;
#X msg 1423 600 stillAsc;
#X msg 1505 600 descStill;
#X obj 1205 693 list;
#X obj 837 586 bng 50 250 50 0 empty empty empty 17 7 0 10 -204800
-1 -1;
#X text 910 558 Confirm and write on txt, f 13;
#X msg 1006 707 0;
#X msg 1041 708 1;
#X obj 106 104 sel 1;
#X obj 837 560 sel 1;
#X obj 967 747 spigot;
#X obj 967 771 t b l;
#X obj 623 43 receive fromGUI;
#X obj 623 67 list trim;
#X obj 623 116 s generate;
#X obj 711 116 s play;
#X obj 106 77 r generate;
#X obj 105 619 r play;
#X obj 1112 166 receive fromGUI;
#X obj 1112 190 list trim;
#X obj 1112 214 route /t_asc /t_desc /t_ascDesc /t_descAsc /t_stillAsc
/t_descStill, f 72;
#X obj 1112 238 sel 1;
#X obj 1195 238 sel 1;
#X obj 1362 238 sel 1;
#X obj 1279 238 sel 1;
#X obj 1529 238 sel 1;
#X obj 1446 238 sel 1;
#X obj 1338 547 send toGUI;
#X msg 1122 366 0;
#X msg 1205 366 0;
#X msg 1289 366 0;
#X msg 1372 366 0;
#X msg 1456 366 0;
#X msg 1539 366 0;
#X obj 1335 326 sel 1;
#X obj 800 116 s validate;
#X obj 837 534 r validate;
#X obj 1335 300 r validate;
#X obj 1302 274 loadbang;
#X msg 1302 298 1;
#X msg 983 497 list /t_asc \$1;
#X msg 1093 497 list /t_desc \$1;
#X msg 1207 497 list /t_ascDesc \$1;
#X msg 1344 497 list /t_descAsc \$1;
#X msg 1479 497 list /t_stillAsc \$1;
#X msg 1623 497 list /t_descStill \$1;
#X msg 2117 244 0;
#X obj 2117 290 s toGUI;
#X obj 2159 219 loadbang;
#X msg 2159 244 1;
#X obj 75 499 s countFinish;
#X obj 2117 193 r countFinish;
#X obj 2251 220 sel 1;
#X obj 2251 194 r validate;
#X text 2330 200 Enable after every answer, f 13;
#X msg 1959 541 0;
#X obj 1959 587 s toGUI;
#X msg 2001 541 1;
#X obj 1867 503 loadbang;
#X obj 1959 504 sel 1;
#X obj 1959 477 r validate;
#X obj 2041 503 sel 1;
#X msg 2280 539 0;
#X obj 2280 585 s toGUI;
#X msg 2322 539 1;
#X obj 2188 501 loadbang;
#X obj 2280 502 sel 1;
#X obj 2280 475 r validate;
#X obj 1426 835 bng 50 250 50 0 empty empty empty 17 7 0 10 -203904
-4032 -66577;
#X obj 1426 810 sel 1;
#X obj 1426 786 r setup_play;
#X text 1321 840 Test play for initial volume setting, f 14;
#X obj 1277 986 noise~;
#X obj 1357 952 line;
#X floatatom 1357 976 5 0 0 0 - - -;
#X obj 1357 999 log 10;
#X obj 1276 1044 *~;
#X obj 1485 896 delay 5000;
#X floatatom 1357 1031 5 0 0 0 - - -;
#X msg 1357 922 1 \, 10 1000 0.01;
#X msg 1485 923 10 \, 1 1000 0.01;
#X obj 106 874 throw~ LeftOut;
#X obj 218 874 throw~ RightOut;
#X obj 1307 1079 throw~ LeftOut;
#X obj 1277 1103 throw~ RightOut;
#X obj 103 1436 *~;
#X obj 103 1219 receive fromGUI;
#X obj 103 1243 list trim;
#X obj 103 1267 route /s_master_vol;
#X obj 103 1291 unpack f f;
#X floatatom 103 1314 5 0 0 0 - - -;
#N canvas 0 50 450 300 logSlider 0;
#X obj 16 200 \$1 20;
#X obj 16 223 line;
#X obj 16 255 outlet;
#X obj 16 14 inlet;
#X text 59 14 accepts a slider scaled from 0.1 - n;
#X floatatom 16 67 5 0 0 0 - - -;
#X obj 16 90 * 40;
#X obj 16 114 + 60;
#X obj 16 138 dbtorms;
#X floatatom 16 162 5 0 0 0 - - -;
#X connect 0 0 1 0;
#X connect 1 0 2 0;
#X connect 3 0 5 0;
#X connect 5 0 6 0;
#X connect 6 0 7 0;
#X connect 7 0 8 0;
#X connect 8 0 9 0;
#X connect 9 0 0 0;
#X restore 103 1339 pd logSlider;
#X floatatom 103 1363 5 0 0 0 - - -;
#X obj 185 1482 dac~;
#X obj 120 1410 catch~ LeftOut;
#X obj 274 1441 *~;
#X floatatom 274 1319 5 0 0 0 - - -;
#N canvas 0 50 450 300 logSlider 0;
#X obj 16 200 \$1 20;
#X obj 16 223 line;
#X obj 16 255 outlet;
#X obj 16 14 inlet;
#X text 59 14 accepts a slider scaled from 0.1 - n;
#X floatatom 16 67 5 0 0 0 - - -;
#X obj 16 90 * 40;
#X obj 16 114 + 60;
#X obj 16 138 dbtorms;
#X floatatom 16 162 5 0 0 0 - - -;
#X connect 0 0 1 0;
#X connect 1 0 2 0;
#X connect 3 0 5 0;
#X connect 5 0 6 0;
#X connect 6 0 7 0;
#X connect 7 0 8 0;
#X connect 8 0 9 0;
#X connect 9 0 0 0;
#X restore 274 1344 pd logSlider;
#X floatatom 274 1368 5 0 0 0 - - -;
#X obj 291 1410 catch~ RightOut;
#X text 1904 353 Disable toggles after answer validation, f 18;
#X obj 2155 364 sel 1;
#X obj 2155 338 r play;
#X text 2235 353 Enable toggles after playing the audio, f 14;
#X obj 1995 323 loadbang;
#X obj 2066 364 sel 1;
#X obj 2066 339 r validate;
#X msg 2066 388 0;
#X msg 2155 388 1;
#N canvas 611 629 1087 317 enableDisableContours 0;
#X obj 458 240 send toGUI;
#X obj 511 44 inlet;
#X msg 14 184 list /t_asc enable \$1;
#X msg 173 184 list /t_desc enable \$1;
#X msg 339 184 list /t_ascDesc enable \$1;
#X msg 526 184 list /t_descAsc enable \$1;
#X msg 713 184 list /t_stillAsc enable \$1;
#X msg 908 184 list /t_descStill enable \$1;
#X connect 1 0 2 0;
#X connect 1 0 3 0;
#X connect 1 0 5 0;
#X connect 1 0 6 0;
#X connect 1 0 7 0;
#X connect 1 0 4 0;
#X connect 2 0 0 0;
#X connect 3 0 0 0;
#X connect 4 0 0 0;
#X connect 5 0 0 0;
#X connect 6 0 0 0;
#X connect 7 0 0 0;
#X restore 2114 422 pd enableDisableContours;
#X obj 223 245 s rndIsDone;
#X obj 2034 192 r rndIsDone;
#X text 2035 139 ENABLE/DISABLE BUTTONS to guide intraction;
#X obj 623 91 route /b_generate /b_play /b_validate /b_setup_play;
#X obj 888 116 s setup_play;
#X text 1293 1253 TRAINING SESSION;
#X obj 570 273 SimpleCounter, f 17;
#X obj 628 218 loadbang;
#X floatatom 686 299 5 0 0 0 - - -;
#X msg 686 320 list /l_counter \$1;
#X obj 686 344 send toGUI;
#X obj 725 246 bng 15 250 50 0 empty empty empty 17 7 0 10 -262144
-1 -1;
#X obj 570 299 s testComplete;
#X obj 1417 300 r testComplete;
#X obj 1928 192 r testComplete;
#X obj 1938 288 r testComplete;
#X obj 1851 477 r testComplete;
#X obj 2175 475 r testComplete;
#X obj 2127 735 r testComplete;
#X msg 2127 758 1;
#X msg 2127 789 list /l_testCompleted highlight \$1;
#X msg 2135 816 list /p_testCompleted highlight \$1;
#X msg 2056 758 0;
#X obj 2055 735 loadbang;
#X obj 2135 840 s toGUI;
#X obj 573 968 r testComplete;
#X obj 747 1119 send toGUI;
#X text 1587 364 Select the toggle exclusively;
#X text 640 188 TEST COUNTER;
#X text 1272 141 TEST TOGGLES BEHAVIOUR;
#X text 837 505 CONFIRM;
#X text 167 620 PLAY STIMULS;
#X text 107 38 SELECT ITEM;
#X text 1419 760 TEST SOUND;
#X text 113 1183 MASTER VOL \, SEND TO DAC;
#X text 582 935 WRITE TXT;
#X text 384 546 READ STIMULI FROM TXT;
#X msg 482 610 read AllSounds.txt;
#X obj 413 1016 r storeAnswer;
#X msg 779 276 0;
#X obj 620 1267 loadbang;
#X msg 620 1291 list /s_master_vol 0.5 0.5;
#X obj 620 1315 send toGUI;
#X text 690 1267 Initialize volume;
#X obj 747 1040 loadbang;
#X msg 747 1064 list Complete first the test!;
#X msg 747 1089 list /l_testID \$1 \$2 \$3 \$4;
#X msg 2117 267 list /b_generate enable \$1;
#X msg 1959 564 list /b_validate enable \$1;
#X msg 2280 562 list /b_play enable \$1;
#X obj 2362 475 r countFinish;
#X msg 641 1145 list /l_testID \$1;
#X msg 737 767 noAnswer;
#X obj 705 799 list;
#X obj 705 823 spigot;
#X msg 776 799 0;
#X msg 744 799 1;
#X obj 705 740 t b b;
#X obj 837 641 t b b;
#X text 1022 755 Write only after new play and allow only one answer
per audio file., f 15;
#X text 682 693 If there is no answer and confirm is pressed \, write
no answer instead, f 23;
#X msg 380 949 add \$1;
#X obj 446 827 list;
#X obj 380 980 print toTXT_Track;
#X msg 999 838 add \$1;
#X obj 999 883 s storeAnswer;
#X obj 1008 860 print answer;
#X text 434 953 Write nametrack;
#X text 971 636 WRITE ANSWER;
#X obj 1909 758 bng 15 250 50 0 empty empty empty 17 7 0 10 -262144
-1 -1;
#X obj 1909 734 r testComplete;
#X obj 1909 832 send toSystem;
#X msg 1909 808 list /setPage 4;
#X obj 1909 778 del 3000;
#X text 1984 693 TEST COMPLETED;
#N canvas -7 0 1278 980 training_Session 0;
#X msg 630 357 0;
#X msg 681 357 1;
#X obj 656 518 send toGUI;
#X msg 656 390 list /p_ascTrain highlight \$1;
#X obj 147 43 receive fromGUI;
#X obj 147 67 list trim;
#X obj 147 91 route /b_generateTrain /b_playTrain /b_validateTrain
;
#X obj 147 119 s generateTrain;
#X obj 267 119 s playTrain;
#X obj 387 119 s validateTrain;
#X obj 147 298 SimpleCounter, f 15;
#X obj 198 239 loadbang;
#X msg 198 263 6;
#X obj 147 332 bng 15 250 50 0 empty empty empty 17 7 0 10 -262144
-1 -1;
#X obj 147 215 r generateTrain;
#X obj 147 239 sel 1;
#X obj 34 414 bng 50 250 50 0 empty empty empty 17 7 0 10 -232576 -4032
-66577;
#X msg 34 499 start;
#X obj 34 469 t b b;
#X obj 34 390 sel 1;
#X obj 34 573 readsf~ 2;
#X text 104 572 AudioPlayer;
#X obj 35 620 throw~ LeftOut;
#X obj 147 620 throw~ RightOut;
#X text 97 424 Play Training;
#X obj 34 365 r playTrain;
#X msg 848 357 0;
#X msg 899 357 1;
#X msg 1073 357 0;
#X msg 1124 357 1;
#X msg 1322 357 0;
#X msg 1373 357 1;
#X msg 1574 357 0;
#X msg 1625 357 1;
#X msg 1825 357 0;
#X msg 1876 357 1;
#X floatatom 249 325 5 0 0 0 - - -;
#X msg 874 390 list /p_descTrain highlight \$1;
#X msg 1099 390 list /p_ascDescTrain highlight \$1;
#X msg 1348 390 list /p_descAscTrain highlight \$1;
#X msg 1600 390 list /p_stillAscTrain highlight \$1;
#X msg 1851 390 list /p_descStillTrain highlight \$1;
#X obj 1034 35 sel 1 2 3 4 5 6, f 23;
#X obj 600 631 receive fromGUI;
#X obj 600 655 list trim;
#X obj 600 703 sel 1;
#X obj 733 703 sel 1;
#X obj 993 703 sel 1;
#X obj 863 703 sel 1;
#X obj 1257 703 sel 1;
#X obj 1123 703 sel 1;
#X obj 855 1013 send toGUI;
#X msg 610 831 0;
#X msg 693 831 0;
#X msg 777 831 0;
#X msg 860 831 0;
#X msg 944 831 0;
#X msg 1027 831 0;
#X obj 823 791 sel 1;
#X obj 790 739 loadbang;
#X msg 790 763 1;
#X obj 600 679 route /t_ascTrain /t_descTrain /t_ascDescTrain /t_descAscTrain
/t_stillAscTrain /t_descStillTrain, f 113;
#X msg 467 962 list /t_ascTrain \$1;
#X msg 619 962 list /t_descTrain \$1;
#X msg 777 962 list /t_ascDescTrain \$1;
#X msg 959 962 list /t_descAscTrain \$1;
#X msg 1140 962 list /t_stillAscTrain \$1;
#X obj 823 765 r validateTrain;
#X msg 1326 962 list /t_descStillTrain \$1;
#X text 734 320 Highlight panels;
#X text 1079 829 Select the toggle exclusively;
#X msg 249 420 open 2_asc_Piano_AM.wav;
#X msg 275 444 open 2_desc_Piano_AM.wav;
#X msg 301 466 open 2_ascDesc_Piano_AM.wav;
#X msg 328 488 open 2_descAsc_Piano_AM.wav;
#X msg 355 510 open 2_stillAsc_Piano_AM.wav;
#X msg 380 531 open 2_descStll_Piano_AM.wav \;;
#X connect 0 0 3 0;
#X connect 1 0 3 0;
#X connect 3 0 2 0;
#X connect 4 0 5 0;
#X connect 5 0 6 0;
#X connect 6 0 7 0;
#X connect 6 1 8 0;
#X connect 6 2 9 0;
#X connect 10 0 13 0;
#X connect 10 1 36 0;
#X connect 11 0 12 0;
#X connect 12 0 10 1;
#X connect 13 0 10 2;
#X connect 14 0 15 0;
#X connect 15 0 10 0;
#X connect 16 0 18 0;
#X connect 17 0 20 0;
#X connect 18 0 17 0;
#X connect 18 1 36 0;
#X connect 19 0 16 0;
#X connect 20 0 22 0;
#X connect 20 1 23 0;
#X connect 25 0 19 0;
#X connect 26 0 37 0;
#X connect 27 0 37 0;
#X connect 28 0 38 0;
#X connect 29 0 38 0;
#X connect 30 0 39 0;
#X connect 31 0 39 0;
#X connect 32 0 40 0;
#X connect 33 0 40 0;
#X connect 34 0 41 0;
#X connect 35 0 41 0;
#X connect 36 0 42 0;
#X connect 37 0 2 0;
#X connect 38 0 2 0;
#X connect 39 0 2 0;
#X connect 40 0 2 0;
#X connect 41 0 2 0;
#X connect 42 0 71 0;
#X connect 42 0 1 0;
#X connect 42 0 26 0;
#X connect 42 0 28 0;
#X connect 42 0 30 0;
#X connect 42 0 32 0;
#X connect 42 0 34 0;
#X connect 42 1 72 0;
#X connect 42 1 0 0;
#X connect 42 1 27 0;
#X connect 42 1 28 0;
#X connect 42 1 30 0;
#X connect 42 1 32 0;
#X connect 42 1 34 0;
#X connect 42 2 73 0;
#X connect 42 2 0 0;
#X connect 42 2 26 0;
#X connect 42 2 29 0;
#X connect 42 2 30 0;
#X connect 42 3 74 0;
#X connect 42 3 0 0;
#X connect 42 3 26 0;
#X connect 42 3 31 0;
#X connect 42 3 28 0;
#X connect 42 3 32 0;
#X connect 42 3 34 0;
#X connect 42 4 75 0;
#X connect 42 4 0 0;
#X connect 42 4 26 0;
#X connect 42 4 33 0;
#X connect 42 4 28 0;
#X connect 42 4 30 0;
#X connect 42 4 34 0;
#X connect 42 5 76 0;
#X connect 42 5 0 0;
#X connect 42 5 26 0;
#X connect 42 5 35 0;
#X connect 42 5 30 0;
#X connect 42 5 32 0;
#X connect 42 5 28 0;
#X connect 42 6 0 0;
#X connect 42 6 26 0;
#X connect 42 6 28 0;
#X connect 42 6 30 0;
#X connect 42 6 32 0;
#X connect 42 6 34 0;
#X connect 43 0 44 0;
#X connect 44 0 61 0;
#X connect 45 0 52 0;
#X connect 46 0 53 0;
#X connect 47 0 55 0;
#X connect 48 0 54 0;
#X connect 49 0 57 0;
#X connect 50 0 56 0;
#X connect 52 0 63 0;
#X connect 52 0 64 0;
#X connect 52 0 66 0;
#X connect 52 0 68 0;
#X connect 52 0 65 0;
#X connect 53 0 62 0;
#X connect 53 0 64 0;
#X connect 53 0 66 0;
#X connect 53 0 68 0;
#X connect 53 0 65 0;
#X connect 54 0 62 0;
#X connect 54 0 63 0;
#X connect 54 0 66 0;
#X connect 54 0 68 0;
#X connect 54 0 65 0;
#X connect 55 0 62 0;
#X connect 55 0 63 0;
#X connect 55 0 66 0;
#X connect 55 0 64 0;
#X connect 55 0 68 0;
#X connect 56 0 68 0;
#X connect 56 0 65 0;
#X connect 56 0 64 0;
#X connect 56 0 63 0;
#X connect 56 0 62 0;
#X connect 57 0 62 0;
#X connect 57 0 63 0;
#X connect 57 0 64 0;
#X connect 57 0 65 0;
#X connect 57 0 66 0;
#X connect 58 0 52 0;
#X connect 58 0 53 0;
#X connect 58 0 54 0;
#X connect 58 0 55 0;
#X connect 58 0 56 0;
#X connect 58 0 57 0;
#X connect 59 0 60 0;
#X connect 60 0 58 0;
#X connect 61 0 45 0;
#X connect 61 1 46 0;
#X connect 61 2 48 0;
#X connect 61 3 47 0;
#X connect 61 4 50 0;
#X connect 61 5 49 0;
#X connect 62 0 51 0;
#X connect 63 0 51 0;
#X connect 64 0 51 0;
#X connect 65 0 51 0;
#X connect 66 0 51 0;
#X connect 67 0 58 0;
#X connect 68 0 51 0;
#X connect 71 0 20 0;
#X connect 72 0 20 0;
#X connect 73 0 20 0;
#X connect 74 0 20 0;
#X connect 75 0 20 0;
#X connect 76 0 20 0;
#X restore 1293 1284 pd training_Session;
#X obj 106 218 RandomNoRep 144;
#X msg 628 242 144;
#X obj 380 920 spigot;
#X obj 419 859 r generate;
#X msg 419 883 1;
#X msg 385 884 0;
#X obj 105 723 t b b b;
#X obj 1041 732 s answerSelected;
#X obj 2041 477 r answerSelected;
#X text 755 820 Disabled feature, f 8;
#X obj 1006 678 loadbang;
#X connect 0 0 235 0;
#X connect 1 0 3 0;
#X connect 2 0 0 0;
#X connect 3 0 124 0;
#X connect 3 1 125 0;
#X connect 6 0 26 0;
#X connect 6 0 159 0;
#X connect 7 0 21 0;
#X connect 8 0 19 0;
#X connect 9 0 229 1;
#X connect 10 0 28 1;
#X connect 11 0 10 0;
#X connect 12 0 10 0;
#X connect 13 0 18 0;
#X connect 13 1 24 0;
#X connect 13 1 25 0;
#X connect 14 0 22 0;
#X connect 15 0 11 0;
#X connect 15 1 16 0;
#X connect 16 0 17 0;
#X connect 18 0 23 0;
#X connect 18 0 13 2;
#X connect 18 0 93 0;
#X connect 18 1 12 0;
#X connect 18 2 14 0;
#X connect 21 0 22 0;
#X connect 21 1 8 0;
#X connect 21 2 13 1;
#X connect 22 0 13 0;
#X connect 24 0 25 1;
#X connect 25 0 15 0;
#X connect 26 0 229 0;
#X connect 26 1 12 0;
#X connect 27 0 190 0;
#X connect 28 0 29 0;
#X connect 28 0 215 0;
#X connect 29 0 3 0;
#X connect 36 0 34 0;
#X connect 37 0 36 0;
#X connect 37 0 204 0;
#X connect 38 0 39 0;
#X connect 39 0 37 0;
#X connect 40 0 46 1;
#X connect 40 0 50 0;
#X connect 41 0 46 1;
#X connect 41 0 50 0;
#X connect 42 0 46 1;
#X connect 42 0 50 0;
#X connect 43 0 46 1;
#X connect 43 0 50 0;
#X connect 44 0 46 1;
#X connect 44 0 50 0;
#X connect 45 0 46 1;
#X connect 45 0 50 0;
#X connect 46 0 53 0;
#X connect 47 0 211 0;
#X connect 49 0 53 1;
#X connect 49 0 209 0;
#X connect 50 0 53 1;
#X connect 50 0 208 0;
#X connect 50 0 236 0;
#X connect 51 0 6 0;
#X connect 52 0 47 0;
#X connect 53 0 54 0;
#X connect 54 0 49 0;
#X connect 54 1 217 0;
#X connect 55 0 56 0;
#X connect 56 0 156 0;
#X connect 59 0 51 0;
#X connect 60 0 2 0;
#X connect 61 0 62 0;
#X connect 62 0 63 0;
#X connect 63 0 64 0;
#X connect 63 1 65 0;
#X connect 63 2 67 0;
#X connect 63 3 66 0;
#X connect 63 4 69 0;
#X connect 63 5 68 0;
#X connect 64 0 40 0;
#X connect 64 0 71 0;
#X connect 65 0 72 0;
#X connect 65 0 41 0;
#X connect 66 0 74 0;
#X connect 66 0 43 0;
#X connect 67 0 73 0;
#X connect 67 0 42 0;
#X connect 68 0 76 0;
#X connect 68 0 45 0;
#X connect 69 0 75 0;
#X connect 69 0 44 0;
#X connect 71 0 84 0;
#X connect 71 0 85 0;
#X connect 71 0 87 0;
#X connect 71 0 88 0;
#X connect 71 0 86 0;
#X connect 72 0 83 0;
#X connect 72 0 85 0;
#X connect 72 0 87 0;
#X connect 72 0 88 0;
#X connect 72 0 86 0;
#X connect 73 0 83 0;
#X connect 73 0 84 0;
#X connect 73 0 87 0;
#X connect 73 0 88 0;
#X connect 73 0 86 0;
#X connect 74 0 83 0;
#X connect 74 0 84 0;
#X connect 74 0 87 0;
#X connect 74 0 85 0;
#X connect 74 0 88 0;
#X connect 75 0 88 0;
#X connect 75 0 86 0;
#X connect 75 0 85 0;
#X connect 75 0 84 0;
#X connect 75 0 83 0;
#X connect 76 0 83 0;
#X connect 76 0 84 0;
#X connect 76 0 85 0;
#X connect 76 0 86 0;
#X connect 76 0 87 0;
#X connect 77 0 71 0;
#X connect 77 0 72 0;
#X connect 77 0 73 0;
#X connect 77 0 74 0;
#X connect 77 0 75 0;
#X connect 77 0 76 0;
#X connect 79 0 52 0;
#X connect 80 0 77 0;
#X connect 81 0 82 0;
#X connect 82 0 77 0;
#X connect 83 0 70 0;
#X connect 84 0 70 0;
#X connect 85 0 70 0;
#X connect 86 0 70 0;
#X connect 87 0 70 0;
#X connect 88 0 70 0;
#X connect 89 0 200 0;
#X connect 91 0 92 0;
#X connect 92 0 200 0;
#X connect 94 0 89 0;
#X connect 95 0 92 0;
#X connect 96 0 95 0;
#X connect 98 0 201 0;
#X connect 100 0 201 0;
#X connect 101 0 98 0;
#X connect 102 0 98 0;
#X connect 103 0 102 0;
#X connect 104 0 100 0;
#X connect 105 0 202 0;
#X connect 107 0 202 0;
#X connect 108 0 105 0;
#X connect 109 0 105 0;
#X connect 110 0 109 0;
#X connect 111 0 122 0;
#X connect 111 0 120 0;
#X connect 112 0 111 0;
#X connect 113 0 112 0;
#X connect 115 0 119 0;
#X connect 116 0 117 0;
#X connect 117 0 118 0;
#X connect 118 0 121 0;
#X connect 119 0 126 0;
#X connect 119 0 127 0;
#X connect 120 0 123 0;
#X connect 121 0 119 1;
#X connect 122 0 116 0;
#X connect 123 0 116 0;
#X connect 128 0 136 0;
#X connect 129 0 130 0;
#X connect 130 0 131 0;
#X connect 131 0 132 0;
#X connect 132 0 133 0;
#X connect 132 1 139 0;
#X connect 133 0 134 0;
#X connect 134 0 135 0;
#X connect 135 0 128 0;
#X connect 137 0 128 1;
#X connect 138 0 136 1;
#X connect 139 0 140 0;
#X connect 140 0 141 0;
#X connect 141 0 138 0;
#X connect 142 0 138 1;
#X connect 144 0 151 0;
#X connect 145 0 144 0;
#X connect 147 0 150 0;
#X connect 148 0 150 0;
#X connect 149 0 148 0;
#X connect 150 0 152 0;
#X connect 151 0 152 0;
#X connect 154 0 89 0;
#X connect 156 0 57 0;
#X connect 156 1 58 0;
#X connect 156 2 78 0;
#X connect 156 3 157 0;
#X connect 159 0 165 0;
#X connect 159 1 161 0;
#X connect 160 0 230 0;
#X connect 160 0 192 0;
#X connect 161 0 162 0;
#X connect 162 0 163 0;
#X connect 164 0 159 2;
#X connect 166 0 77 0;
#X connect 167 0 89 0;
#X connect 168 0 150 0;
#X connect 169 0 98 0;
#X connect 170 0 105 0;
#X connect 171 0 172 0;
#X connect 172 0 173 0;
#X connect 172 0 174 0;
#X connect 173 0 177 0;
#X connect 174 0 177 0;
#X connect 175 0 173 0;
#X connect 175 0 174 0;
#X connect 176 0 175 0;
#X connect 178 0 38 0;
#X connect 190 0 10 0;
#X connect 191 0 34 0;
#X connect 192 0 162 0;
#X connect 193 0 194 0;
#X connect 194 0 195 0;
#X connect 197 0 198 0;
#X connect 198 0 199 0;
#X connect 199 0 179 0;
#X connect 200 0 90 0;
#X connect 201 0 99 0;
#X connect 202 0 106 0;
#X connect 203 0 107 0;
#X connect 204 0 179 0;
#X connect 205 0 206 1;
#X connect 206 0 207 0;
#X connect 208 0 207 1;
#X connect 209 0 207 1;
#X connect 210 0 206 0;
#X connect 210 1 205 0;
#X connect 211 0 46 0;
#X connect 211 1 210 0;
#X connect 214 0 34 0;
#X connect 214 0 216 0;
#X connect 215 0 231 0;
#X connect 217 0 218 0;
#X connect 217 0 219 0;
#X connect 222 0 226 0;
#X connect 223 0 222 0;
#X connect 225 0 224 0;
#X connect 226 0 225 0;
#X connect 229 0 7 0;
#X connect 229 1 20 0;
#X connect 229 1 153 0;
#X connect 230 0 159 1;
#X connect 230 0 9 0;
#X connect 231 0 214 0;
#X connect 232 0 233 0;
#X connect 233 0 231 1;
#X connect 234 0 231 1;
#X connect 235 0 1 0;
#X connect 235 1 234 0;
#X connect 235 2 28 0;
#X connect 237 0 104 0;
#X connect 239 0 49 0;
